# xmcd
#
# Track frame offsets: 
#        150
#        23542
#        43022
#        59897
#        84490
#        96505
#        118420
#        132040
#        159257
#        174030
#        180605
#
# Disc length: 2586 seconds
#
# Revision: 1
# Processed by: cddbd v1.5.2PL0 Copyright (c) Steve Scherf et al.
# Submitted via: ExactAudioCopyFreeDBPlugin 1.0
#
DISCID=8b0a180b
DTITLE=Salon Music - Psychic Ball
DYEAR=1900
DGENRE=Rock
TTITLE0=Shadow Behind
TTITLE1=Purple Haze
TTITLE2=Always The Sun
TTITLE3=Sugar In Sand
TTITLE4=Lash The Plash
TTITLE5=P-16
TTITLE6=Universe Of Love
TTITLE7=Shadow Around
TTITLE8=What A Beautiful Day
TTITLE9=Deep Breath Of Andalusia
TTITLE10=Parasite
EXTD=
EXTT0=
EXTT1=
EXTT2=
EXTT3=
EXTT4=
EXTT5=
EXTT6=
EXTT7=
EXTT8=
EXTT9=
EXTT10=
PLAYORDER=
